<?xml version="1.0" encoding="UTF-8" standalone="no"?>
<svg
   xmlns:dc="http://purl.org/dc/elements/1.1/"
   xmlns:cc="http://creativecommons.org/ns#"
   xmlns:rdf="http://www.w3.org/1999/02/22-rdf-syntax-ns#"
   xmlns:svg="http://www.w3.org/2000/svg"
   xmlns="http://www.w3.org/2000/svg"
   xmlns:sodipodi="http://sodipodi.sourceforge.net/DTD/sodipodi-0.dtd"
   xmlns:inkscape="http://www.inkscape.org/namespaces/inkscape"
   viewBox="0 0 1920 1920"
   version="1.1"
   id="svg66"
   sodipodi:docname="acho-logo.svg"
   inkscape:version="1.0.2-2 (e86c870879, 2021-01-15)">
  <metadata
     id="metadata72">
    <rdf:RDF>
      <cc:Work
         rdf:about="">
        <dc:format>image/svg+xml</dc:format>
        <dc:type
           rdf:resource="http://purl.org/dc/dcmitype/StillImage" />
        <dc:title></dc:title>
      </cc:Work>
    </rdf:RDF>
  </metadata>
  <defs
     id="defs70" />
  <sodipodi:namedview
     pagecolor="#ffffff"
     bordercolor="#666666"
     borderopacity="1"
     objecttolerance="10"
     gridtolerance="10"
     guidetolerance="10"
     inkscape:pageopacity="0"
     inkscape:pageshadow="2"
     inkscape:window-width="1920"
     inkscape:window-height="1017"
     id="namedview68"
     showgrid="false"
     inkscape:zoom="0.37523402"
     inkscape:cx="368.64333"
     inkscape:cy="931.15343"
     inkscape:window-x="1358"
     inkscape:window-y="-8"
     inkscape:window-maximized="1"
     inkscape:current-layer="svg66" />
  <style
     id="style42">
        .st0{fill:#fff}.st1{fill:none;stroke:#231f20;stroke-width:50;stroke-linecap:round;stroke-linejoin:round;stroke-miterlimit:10}
    </style>
  <g
     id="STROKES"
     transform="matrix(1.2712641,0.3406342,-0.3406342,1.2712641,90.01476,-520.09796)"
     style="stroke:none">
    <path
       class="st1"
       d="m 866.4,960 c 0,334.5 -124.6,605.7 -278.2,605.7 -19,0 -37.5,-4.1 -55.4,-12 C 405.7,1497.8 309.9,1253.2 309.9,960 c 0,-293.2 95.7,-537.8 222.9,-593.7 17.9,-7.9 36.4,-12 55.4,-12 153.6,0 278.2,271.2 278.2,605.7 z"
       id="path47"
       style="stroke:none" />
    <path
       class="st1"
       d="m 983.8,960 c 0,395.1 -171.7,715.3 -383.4,715.3 -26.2,0 -51.7,-4.9 -76.4,-14.2 -175.2,-66 -307.1,-354.8 -307.1,-701.1 0,-346.3 131.9,-635.1 307.1,-701.1 24.7,-9.3 50.2,-14.2 76.4,-14.2 211.8,0 383.4,320.2 383.4,715.3 z"
       id="path49"
       style="stroke:none" />
    <path
       class="st1"
       d="m 1703.1,960 c 0,37.1 -5.1,70.8 -18.1,95.1 -13,24.3 -34,39.4 -65.7,39.4 -5,0 -9.8,-0.4 -14.6,-1.1 -75.4,339.3 -433.1,596.3 -862.9,596.3 -59.6,0 -117.8,-4.9 -174.1,-14.4 -23.6,-4 -46.9,-8.7 -69.8,-14.2 -160.2,-66 -280.8,-354.8 -280.8,-701.1 0,-346.3 120.6,-635.1 280.8,-701.1 22.9,-5.5 46.2,-10.3 69.8,-14.2 56.3,-9.4 114.5,-14.4 174.1,-14.4 429.9,0 787.6,257 862.9,596.3 4.8,-0.7 9.7,-1.1 14.6,-1.1 31.7,0 52.7,15.1 65.7,39.4 12.9,24.3 18.1,58 18.1,95.1 z"
       id="path51"
       style="stroke:none" />
    <path
       class="st1"
       d="M 1604.6,1093.4 V 990.6"
       id="path53"
       style="stroke:none" />
    <path
       class="st1"
       d="M 569.6,1563.1 V 356.9"
       id="path55"
       style="stroke:none" />
    <path
       class="st1"
       d="M 569.6,960 816.7,614.6"
       id="path57"
       style="stroke:none" />
    <path
       class="st1"
       d="M 842.5,1205.9 569.6,960"
       id="path59"
       style="stroke:none" />
    <path
       class="st1"
       d="M 569.6,960 342.1,1243.3"
       id="path61"
       style="stroke:none" />
    <path
       class="st1"
       d="M 569.6,960 339.6,687"
       id="path63"
       style="stroke:none" />
  </g>
  <path
     style="fill:#fcd015;fill-opacity:1;stroke:none;stroke-width:2.83892"
     d="m 741.99467,1893.3352 c -52.2038,-2.7282 -125.41128,-11.5968 -175.4373,-21.253 -35.95917,-6.941 -115.45556,-25.7294 -117.49521,-27.7689 -0.53962,-0.5396 9.95859,-4.5398 23.32936,-8.8892 48.40732,-15.7468 114.36782,-53.2611 164.20493,-93.39 153.42623,-123.5388 287.82061,-333.5259 372.69575,-582.3257 46.9183,-137.5347 73.9071,-264.25496 89.4854,-420.16131 4.5489,-45.52509 4.5601,-197.8038 0.017,-242.7283 C 1080.2729,313.63663 1028.337,169.1396 946.7572,73.818603 938.0711,63.669431 932.05919,54.986923 933.3974,54.524148 c 7.89199,-2.729254 121.3973,34.731843 183.9506,60.710712 420.1064,174.47375 698.8717,544.29091 699.1489,927.50874 0.023,31.9556 1.0614,44.0091 4.3369,50.3428 4.5155,8.7322 17.247,16.9407 26.275,16.9407 11.4105,0 31.7287,9.3168 41.392,18.9802 14.1077,14.1077 19.8726,33.2014 19.6303,65.0176 -0.4658,61.1743 -26.9237,141.7281 -57.5608,175.2501 -16.1911,17.7156 -30.0493,25.3608 -43.6896,24.1023 l -9.5037,-0.8768 13.9314,-51.1008 c 9.1985,-33.7398 13.4542,-54.3736 12.5266,-60.7343 -3.7189,-25.5006 -36.2303,-35.4187 -54.5611,-16.6448 -4.5299,4.6394 -11.3311,25.1953 -24.6628,74.5402 -20.3184,75.2059 -24.4948,84.5117 -63.7058,141.9464 -142.1197,208.1727 -383.7137,352.3251 -667.7935,398.4543 -50.14021,8.1419 -82.13416,11.5049 -139.10752,14.622 -55.11641,3.0156 -70.09661,2.9874 -132.01013,-0.2481 z"
     id="path1097" />
  <path
     style="fill:#fcd015;fill-opacity:1;stroke:none;stroke-width:2.83892;stroke-opacity:1"
     d="M 318.46923,1788.5093 C 162.32099,1765.6787 52.041914,1594.9523 20.494345,1327.2051 14.237493,1274.1026 13.32467,1121.8061 18.937405,1067.4433 55.982841,708.63448 196.81642,373.92564 394.12822,175.75487 451.9063,117.72524 501.2535,80.918204 557.46438,53.925811 612.6794,27.411637 654.22719,18.329244 709.81634,20.621493 c 40.23172,1.658977 59.61588,6.25181 92.53226,21.924329 30.54155,14.541794 45.33386,24.924539 72.53516,50.912495 82.98225,79.280793 134.81154,207.644343 157.13364,389.165853 7.1481,58.1292 7.1692,206.49118 0.038,272.53702 -16.6042,153.79337 -48.40034,289.58791 -100.37405,428.67811 -52.43013,140.3115 -119.27075,262.8353 -201.3342,369.0606 -28.08833,36.3582 -105.23522,115.5726 -136.20113,139.8511 -95.45792,74.8429 -191.22056,108.1067 -275.67727,95.7583 z m 91.12458,-87.7627 c 27.89738,-7.3331 73.23468,-28.7715 102.24858,-48.3499 143.47563,-96.8164 281.37592,-315.7189 362.30433,-575.1209 C 963.66427,790.34266 977.1961,502.09847 910.32618,306.61066 871.09788,191.93041 804.67574,119.16024 720.09715,98.201149 698.34446,92.810716 653.56279,91.948147 629.85703,96.462987 588.3753,104.36332 534.92793,129.43794 492.16905,161.05873 462.08093,183.3093 400.52529,244.01143 373.35899,278.22138 238.20027,448.42391 134.37468,698.84384 90.525909,960.39462 c -31.281174,186.58708 -28.871173,351.62198 7.14997,489.62248 21.895671,83.8844 54.905511,147.883 99.032411,192.001 33.43597,33.4293 70.47742,54.2495 111.94027,62.9188 25.46068,5.3235 72.11998,3.3866 100.94525,-4.1903 z"
     id="path1099" />
  <path
     style="fill:#fcd015;fill-opacity:1;stroke:none;stroke-width:2.83892;stroke-opacity:1"
     d="m 547.52814,797.61361 c 0,-3.97395 167.71787,-631.03183 169.22177,-632.68065 0.57732,-0.63292 9.35316,3.06388 19.50191,8.21512 73.81395,37.46598 126.7418,148.04131 144.81482,302.54282 2.36163,20.18896 4.29387,39.50956 4.29387,42.93467 0,4.78393 -38.33236,37.73119 -165.36754,142.13587 -90.95213,74.74961 -166.96442,136.86449 -168.91618,138.03306 -2.02358,1.21154 -3.54865,0.70405 -3.54865,-1.18089 z"
     id="path1101" />
  <path
     style="fill:#fcd015;fill-opacity:1;stroke:none;stroke-width:2.83892;stroke-opacity:1"
     d="M 639.7932,1069.9163 C 582.02107,980.87073 533.82097,906.35992 532.68188,904.33679 c -1.4274,-2.53522 51.4681,-47.68473 170.19415,-145.27101 94.7459,-77.87591 175.38137,-144.061 179.18996,-147.07796 l 6.92475,-5.48538 -1.92014,35.29413 c -9.23084,169.67369 -40.51652,324.7748 -97.31074,482.42523 -13.60486,37.7645 -39.90687,102.2966 -43.04383,105.6081 -1.03543,1.0931 -49.15069,-70.868 -106.92283,-159.9136 z"
     id="path1103" />
  <path
     style="fill:#fcd015;fill-opacity:1;stroke:none;stroke-width:2.83892;stroke-opacity:1"
     d="m 402.93756,638.26578 c -41.19947,-87.94501 -75.48286,-162.09652 -76.1853,-164.78112 -1.6813,-6.42561 13.71509,-34.15897 46.50751,-83.77348 67.24907,-101.74705 139.29104,-173.23909 209.75495,-208.15385 25.90928,-12.83801 62.46738,-24.92573 65.67727,-21.71583 1.27598,1.27596 -164.29601,622.8512 -168.65408,633.14582 -1.62045,3.82782 -21.72983,-36.5268 -77.10035,-154.72154 z"
     id="path1105" />
  <path
     style="fill:#fcd015;fill-opacity:1;stroke:none;stroke-width:2.83892;stroke-opacity:1"
     d="m 138.72257,1096.3795 c 0,-16.7686 10.46733,-96.8629 18.62211,-142.49337 19.38649,-108.47806 52.04106,-223.23033 92.0962,-323.63774 18.51245,-46.40573 36.49079,-86.61167 37.9609,-84.89408 0.53933,0.63015 36.49956,77.02417 79.9116,169.7645 66.42,141.89187 78.27193,169.11591 74.77307,171.75512 -32.88577,24.80595 -300.75067,220.31427 -301.85138,220.31427 -0.83187,0 -1.5125,-4.8638 -1.5125,-10.8087 z"
     id="path1107" />
  <path
     style="fill:#fcd015;fill-opacity:1;stroke:none;stroke-width:2.83892;stroke-opacity:1"
     d="M 241.69692,1594.6463 C 177.173,1527.4514 140.43715,1406.3111 134.33756,1240.6179 l -1.72439,-46.8424 148.485,-108.4171 c 81.66674,-59.6295 148.80112,-108.10099 149.18754,-107.71461 1.03158,1.03158 -168.1007,631.59241 -169.8885,633.38021 -0.83436,0.8343 -9.24949,-6.5356 -18.70029,-16.3777 z"
     id="path1109" />
  <path
     style="fill:#fcd015;fill-opacity:1;stroke:none;stroke-width:2.83892;stroke-opacity:1"
     d="m 324.26301,1641.788 c -2.31858,-1.6423 22.19731,-97.2347 85.65842,-333.9997 48.89867,-182.4344 89.32465,-332.05501 89.83553,-332.49048 1.11577,-0.95085 210.68482,321.86038 211.75745,326.18228 1.01026,4.0706 -34.66461,66.3901 -61.04293,106.6344 -33.97787,51.8387 -61.87088,86.6513 -101.52388,126.7096 -53.33897,53.8841 -97.21287,83.9995 -146.20477,100.356 -19.37758,6.4693 -72.37583,10.9318 -78.47982,6.6079 z"
     id="path1111" />
</svg>
